<svg width="180" height="180" viewBox="0 0 180 180" fill="none" xmlns="http://www.w3.org/2000/svg">
<rect width="180" height="180" rx="40" fill="#1264D0"/>
<g clip-path="url(#clip0_28_93)">
<path d="M30.0843 81.6094C28.5656 89.2031 27.8062 97.05 28.0593 104.644C28.3125 112.237 29.8312 119.831 32.1093 126.919C34.6406 134.006 37.9312 140.841 42.2343 147.422C44.2593 150.712 46.5375 153.75 49.0687 156.788C51.6 159.825 54.1312 162.609 56.9156 165.394C53.625 163.369 50.5875 160.838 47.8031 158.053C45.0187 155.269 42.2343 152.231 39.9562 149.194C35.1468 142.866 31.35 135.778 28.8187 128.184C26.2875 120.591 25.0218 112.491 25.275 104.644C25.5281 96.5437 27.0468 88.6969 30.0843 81.6094ZM132.853 82.875C124.753 87.4312 116.906 92.4937 109.566 98.0625C102.225 103.631 95.3906 109.959 89.3156 116.794C83.2406 123.628 77.6718 130.969 73.1156 138.816C70.8375 142.866 68.5593 146.916 66.7875 150.966C64.7625 155.269 63.2437 159.572 61.725 163.875C62.2312 159.319 63.4968 154.762 65.0156 150.206C66.5343 145.65 68.3062 141.347 70.5843 137.297C74.8875 128.944 80.4562 121.097 86.7843 114.009C93.1124 106.922 100.2 100.847 108.047 95.5312C115.894 90.4688 124.247 85.9125 132.853 82.875Z" fill="white"/>
<path d="M75.1406 49.2094C71.3437 53.7656 64.7625 52.2469 64.7625 52.2469C64.7625 52.2469 62.2312 45.9188 65.775 41.3625C69.5719 36.8063 78.4312 35.5406 78.4312 35.5406C78.4312 35.5406 78.6844 44.9063 75.1406 49.2094ZM61.725 50.2219C62.7375 54.7781 58.6875 58.3219 58.6875 58.3219C58.6875 58.3219 53.3719 56.8031 52.1062 52.2469C51.0938 47.6906 54.6375 41.1094 54.6375 41.1094C54.6375 41.1094 60.4594 45.6656 61.725 50.2219Z" fill="white"/>
<path d="M68.8126 62.8781C64.2564 63.8906 60.7126 59.8406 60.7126 59.8406C60.7126 59.8406 62.2314 54.525 66.7876 53.2594C71.3439 51.9937 77.9251 55.7906 77.9251 55.7906C77.9251 55.7906 73.3689 61.6125 68.8126 62.8781ZM54.1314 61.6125C55.6501 65.9156 52.1063 70.2187 52.1063 70.2187C52.1063 70.2187 46.5376 69.4594 45.0189 65.1562C43.5001 60.8531 46.0313 53.7656 46.0313 53.7656C46.0313 53.7656 52.6126 57.3094 54.1314 61.6125ZM62.7376 73.2563C58.4345 74.775 54.1314 71.2312 54.1314 71.2312C54.1314 71.2312 54.8907 65.6625 59.1939 64.1438C63.497 62.625 70.5845 65.1562 70.5845 65.1562C70.5845 65.1562 67.0407 71.7375 62.7376 73.2563ZM49.0689 73.7625C51.347 78.0656 47.8032 82.875 47.8032 82.875C47.8032 82.875 41.9813 82.6219 39.7032 78.3188C37.4251 74.0156 39.7032 66.4219 39.7032 66.4219C39.7032 66.4219 47.0439 69.2062 49.0689 73.7625ZM59.1939 84.9C54.8907 87.1781 50.0814 83.6344 50.0814 83.6344C50.0814 83.6344 50.3345 77.8125 54.6376 75.5344C58.9407 73.2563 66.5345 75.5344 66.5345 75.5344C66.5345 75.5344 63.7501 82.6219 59.1939 84.9ZM44.5126 87.9375C47.5501 92.2406 44.7657 98.0625 44.7657 98.0625C44.7657 98.0625 38.4376 99.075 35.4001 94.5187C32.3626 90.2156 33.122 81.6094 33.122 81.6094C33.122 81.6094 41.4751 83.6344 44.5126 87.9375ZM57.6751 98.3156C53.372 101.353 47.5501 98.5687 47.5501 98.5687C47.5501 98.5687 46.5376 92.2406 51.0939 89.2031C55.6501 86.1656 64.0032 86.925 64.0032 86.925C64.0032 86.925 61.9782 95.025 57.6751 98.3156ZM41.7282 104.897C45.5251 108.947 43.247 115.528 43.247 115.528C43.247 115.528 36.6657 117.3 32.8688 113.25C29.072 109.2 28.8188 100.087 28.8188 100.087C28.8188 100.087 37.9313 100.594 41.7282 104.897ZM56.6626 113.756C52.6126 117.553 46.0313 115.275 46.0313 115.275C46.0313 115.275 44.2595 108.694 48.3095 104.897C52.3595 101.1 61.472 100.847 61.472 100.847C61.472 100.847 60.9657 109.959 56.6626 113.756Z" fill="white"/>
<path d="M65.0158 51.9938C58.6877 59.8406 54.1314 68.9531 51.3471 78.3188C50.0814 83.1281 48.8158 87.9375 48.0564 92.7469C47.2971 97.5563 46.7908 102.619 46.5377 107.681C46.2846 112.744 46.2846 117.553 46.2846 122.616C46.2846 127.678 46.7908 132.488 47.0439 137.55C47.5502 142.613 48.0564 147.422 48.8158 152.484C49.5752 157.547 50.3346 162.356 51.3471 167.419C49.8283 162.609 48.5627 157.8 47.5502 152.738C46.5377 147.928 45.5252 142.866 45.0189 137.803C44.2596 132.741 44.0064 127.678 43.7533 122.616C43.5002 117.553 43.5002 112.491 43.7533 107.428C44.133 99.8344 44.5127 97.3031 45.5252 92.2406C46.5377 87.1781 47.5502 82.3688 49.3221 77.5594C50.8408 72.75 53.1189 68.1938 55.6502 63.6375C58.1814 59.5875 61.2189 55.5375 65.0158 51.9938Z" fill="white"/>
<path d="M133.866 34.0219C127.791 38.325 119.691 34.275 119.691 34.275C119.691 34.275 118.678 25.4156 124.753 21.1125C130.828 16.8094 142.725 18.075 142.725 18.075C142.725 18.075 139.941 29.7187 133.866 34.0219ZM116.907 30.7313C116.653 36.8063 110.072 39.8438 110.072 39.8438C110.072 39.8438 103.744 36.3 103.997 30.225C104.25 24.15 110.832 17.0625 110.832 17.0625C110.832 17.0625 117.16 24.6562 116.907 30.7313Z" fill="white"/>
<path d="M121.463 48.7031C115.388 48.45 112.35 41.8688 112.35 41.8688C112.35 41.8688 115.894 35.5406 121.969 35.7938C128.044 36.0469 135.131 42.6281 135.131 42.6281C135.131 42.6281 127.538 48.9563 121.463 48.7031ZM103.491 42.375C103.997 48.45 97.922 52.2469 97.922 52.2469C97.922 52.2469 91.3407 49.4625 90.5814 43.3875C90.0751 37.3125 95.6439 29.4656 95.6439 29.4656C95.6439 29.4656 102.984 36.3 103.491 42.375ZM110.325 59.8406C104.25 60.3469 100.453 54.2719 100.453 54.2719C100.453 54.2719 103.238 47.6906 109.313 46.9313C115.388 46.425 123.234 51.9938 123.234 51.9938C123.234 51.9938 116.4 59.3344 110.325 59.8406ZM93.1126 55.7906C94.3782 62.1188 88.3032 66.675 88.3032 66.675C88.3032 66.675 80.9626 64.3969 79.9501 58.3219C78.6845 51.9938 83.747 43.3875 83.747 43.3875C83.747 43.3875 91.847 49.4625 93.1126 55.7906ZM101.972 73.2563C95.6439 74.5219 91.0876 68.4469 91.0876 68.4469C91.0876 68.4469 93.3657 61.1063 99.4407 60.0938C105.769 58.8281 114.375 63.8906 114.375 63.8906C114.375 63.8906 108.3 71.9906 101.972 73.2563ZM82.4814 72.2438C85.0126 78.825 79.4439 84.9 79.4439 84.9C79.4439 84.9 71.3439 83.8875 68.8126 77.3063C66.2814 70.725 70.3314 60.3469 70.3314 60.3469C70.3314 60.3469 80.2032 65.6625 82.4814 72.2438ZM95.3907 89.4563C88.8095 91.9875 82.7345 86.4188 82.7345 86.4188C82.7345 86.4188 83.747 78.3188 90.3282 75.7875C96.9095 73.2563 107.288 77.3063 107.288 77.3063C107.288 77.3063 101.972 86.925 95.3907 89.4563ZM73.3689 92.2406C76.9126 98.8219 71.8501 105.909 71.8501 105.909C71.8501 105.909 62.9907 105.909 59.7001 99.3281C56.4095 92.7469 59.1939 81.3563 59.1939 81.3563C59.1939 81.3563 69.8251 85.6594 73.3689 92.2406ZM89.0626 108.694C82.4814 112.238 75.3939 107.175 75.3939 107.175C75.3939 107.175 75.3939 98.3156 81.9751 95.025C88.5564 91.4813 99.947 94.5188 99.947 94.5188C99.947 94.5188 95.6439 105.15 89.0626 108.694Z" fill="white"/>
<path d="M120.45 34.275C109.819 41.8688 101.213 51.7406 94.3785 62.625C91.0878 68.1938 88.0503 73.7625 85.5191 79.8375C82.9878 85.6594 80.7097 91.7344 78.6847 97.8094C76.6597 103.884 74.8878 110.213 73.3691 116.541C71.8503 122.869 70.5847 129.197 69.3191 135.525C68.3066 141.853 67.2941 148.434 66.2816 154.763C65.5222 161.091 64.7628 167.672 64.2566 174.253C64.0035 167.672 64.0035 161.091 64.5097 154.763C65.016 148.181 65.5222 141.6 66.2816 135.272C67.041 128.691 68.3066 122.362 69.8253 116.034C71.3441 109.706 72.8628 103.378 74.8878 97.05C76.9128 90.7219 79.4441 84.6469 82.2285 78.5719C85.0128 72.4969 88.3035 66.9281 91.8472 61.3594C95.6441 55.7906 99.6941 50.7281 104.503 46.1719C109.313 41.3625 114.628 37.3125 120.45 34.275Z" fill="white"/>
<path d="M102.731 111.984C96.4033 113.25 90.3283 115.022 84.7596 117.553C79.1908 120.084 74.1283 123.628 69.5721 127.931C65.2689 132.234 61.7252 137.297 58.6877 142.866C57.1689 145.65 55.9033 148.434 54.8908 151.472C53.8783 154.509 52.8658 157.547 52.1064 160.584C52.1064 157.294 52.3596 154.256 53.1189 150.966C53.8783 147.928 54.6377 144.638 55.9033 141.6C58.4346 135.525 61.9783 129.956 66.7877 125.4C71.5971 120.844 77.1658 117.3 83.4939 115.022C89.8221 112.744 96.4033 111.731 102.731 111.984Z" fill="white"/>
</g>
<mask id="mask0_28_93" style="mask-type:alpha" maskUnits="userSpaceOnUse" x="73" y="89" width="83" height="75">
<path d="M106.53 111.48C82.7841 130.737 74.2826 154.517 73 164H156V89.05C149.404 88.5029 130.275 92.223 106.53 111.48Z" fill="#D9D9D9"/>
</mask>
<g mask="url(#mask0_28_93)">
<path d="M70.1465 88.1769C72.0279 88.519 72.883 90.4003 72.0279 92.1106L66.5549 105.109C65.8708 106.99 63.9894 107.503 62.4502 106.648L50.8201 99.465C49.2808 98.4388 48.5967 96.2154 49.2808 94.334L52.0173 87.8349C52.7014 86.1246 54.9248 84.9274 56.6351 85.2694L70.1465 88.1769ZM62.4502 116.397C63.9894 115.371 65.8708 116.055 66.7259 117.936L72.1989 130.935C72.883 132.816 72.0279 134.526 70.3176 134.868L56.9772 137.776C55.0958 138.118 53.0435 137.092 52.3594 135.21L49.6229 128.711C48.9388 126.83 49.6229 124.606 51.1621 123.58L62.4502 116.397ZM76.9877 141.88C77.3298 139.999 79.2111 139.144 80.9214 139.999L93.9198 145.472C95.8011 146.156 96.3142 148.038 95.459 149.748L88.1047 161.207C87.0785 162.746 84.8551 163.43 82.9738 162.746L76.4746 160.01C74.7643 159.326 73.5671 157.102 73.9092 155.392L76.9877 141.88ZM105.208 149.577C104.182 148.038 104.866 146.156 106.747 145.301L119.745 139.828C121.627 139.144 123.337 139.999 123.679 141.709L126.587 155.05C126.929 156.931 125.902 158.984 124.021 159.668L117.522 162.404C115.641 163.088 113.417 162.404 112.391 160.865L105.208 149.577ZM130.691 135.039C128.81 134.697 127.955 132.816 128.81 131.106L134.283 118.107C134.967 116.397 136.848 115.713 138.559 116.568L150.189 123.922C151.728 124.948 152.412 127.172 151.728 129.053L148.992 135.552C148.307 137.263 146.084 138.46 144.374 138.118L130.691 135.039ZM138.388 106.819C136.848 107.845 134.967 107.161 134.112 105.28L128.639 92.2817C127.955 90.4003 128.81 88.69 130.52 88.348L143.861 85.4405C145.742 85.0984 147.794 86.1246 148.478 88.0059L151.215 94.5051C151.899 96.2154 151.215 98.6098 149.676 99.636L138.388 106.819ZM123.85 81.3357C123.508 83.2171 121.627 84.0722 119.916 83.2171L106.918 77.7441C105.037 77.06 104.524 75.1786 105.379 73.4683L112.562 62.0093C113.588 60.47 115.812 59.7859 117.693 60.47L124.192 63.2065C125.902 63.8906 127.1 66.114 126.758 67.8243L123.85 81.3357ZM95.6301 73.6394C96.6562 75.1786 95.9721 77.06 94.0908 77.9151L81.0925 83.3881C79.3822 84.0722 77.5008 83.2171 77.1588 81.5068L74.2513 68.1664C73.9092 66.2851 74.9354 64.2327 76.8167 63.5486L83.3159 60.8121C85.1972 60.128 87.4206 60.8121 88.4468 62.3514L95.6301 73.6394Z" fill="white"/>
<path d="M100.419 68.3374C76.4749 68.3374 57.1484 87.6639 57.1484 111.608C57.1484 135.552 76.4749 154.879 100.419 154.879C124.363 154.879 143.69 135.552 143.69 111.608C143.69 87.6639 124.363 68.3374 100.419 68.3374ZM100.419 138.802C85.3685 138.802 73.2253 126.659 73.2253 111.608C73.2253 96.5574 85.3685 84.4143 100.419 84.4143C115.47 84.4143 127.613 96.5574 127.613 111.608C127.613 126.659 115.47 138.802 100.419 138.802Z" fill="white"/>
<path d="M100.5 78C81.9645 78 67 92.9645 67 111.5C67 130.036 81.9645 145 100.5 145C119.036 145 134 130.036 134 111.5C134 92.9645 119.036 78 100.5 78ZM100.5 124.254C93.5279 124.254 87.7462 118.472 87.7462 111.5C87.7462 104.528 93.5279 98.7462 100.5 98.7462C107.472 98.7462 113.254 104.528 113.254 111.5C113.254 118.472 107.472 124.254 100.5 124.254Z" fill="#1264D0"/>
<path d="M100.5 86C86.39 86 75 97.39 75 111.5C75 125.61 86.39 137 100.5 137C114.61 137 126 125.61 126 111.5C126 97.39 114.61 86 100.5 86ZM100.5 124.25C93.53 124.25 87.75 118.47 87.75 111.5C87.75 104.53 93.53 98.75 100.5 98.75C107.47 98.75 113.25 104.53 113.25 111.5C113.25 118.47 107.47 124.25 100.5 124.25Z" fill="white"/>
</g>
<defs>
<clipPath id="clip0_28_93">
<rect width="162" height="162" fill="white" transform="translate(3 12)"/>
</clipPath>
</defs>
</svg>
